<?xml version="1.0" encoding="UTF-8"?>
<svg version="1.1" xmlns="http://www.w3.org/2000/svg" width="894" height="232">
<path d="M0 0 C295.02 0 590.04 0 894 0 C894 76.56 894 153.12 894 232 C598.98 232 303.96 232 0 232 C0 155.44 0 78.88 0 0 Z " fill="#FEFEFE" transform="translate(0,0)"/>
<path d="M0 0 C2.475 0.495 2.475 0.495 5 1 C5.495 2.485 5.495 2.485 6 4 C7.45626572 5.47625203 7.45626572 5.47625203 9.3125 6.9375 C10.37597656 7.8965625 10.37597656 7.8965625 11.4609375 8.875 C14.01196363 11.10555375 14.01196363 11.10555375 17.1640625 13 C21.13462387 15.79694404 24.07058148 18.45791676 26 23 C27.8054164 33.51833079 27.38160243 44.3718056 27 55 C27.99 54.34 28.98 53.68 30 53 C30.33802675 50.45420623 30.4887947 48.13850914 30.51171875 45.5859375 C30.52966995 44.85629791 30.54762115 44.12665833 30.56611633 43.37490845 C30.62035132 41.04166465 30.65415562 38.70862686 30.6875 36.375 C30.72066162 34.79424208 30.7551502 33.21351139 30.79101562 31.6328125 C30.87608467 27.75535674 30.94283178 23.87796345 31 20 C32.32 20 33.64 20 35 20 C35 30.56 35 41.12 35 52 C36.65 52 38.3 52 40 52 C40 50.02 40 48.04 40 46 C40.66 46 41.32 46 42 46 C42 47.98 42 49.96 42 52 C44.31 52 46.62 52 49 52 C49 42.76 49 33.52 49 24 C48.34 24 47.68 24 47 24 C46.375 21.625 46.375 21.625 46 19 C46.66 18.34 47.32 17.68 48 17 C50.125 17.375 50.125 17.375 52 18 C52.38218767 19.65614657 52.71395102 21.32457024 53 23 C52.505 23.495 52.505 23.495 52 24 C51.8415735 26.0708472 51.74875578 28.14678029 51.68359375 30.22265625 C51.64169922 31.48271484 51.59980469 32.74277344 51.55664062 34.04101562 C51.51682404 35.38150736 51.47711186 36.7220022 51.4375 38.0625 C51.39431958 39.40691523 51.35070544 40.7513166 51.30664062 42.09570312 C51.20014642 45.3970234 51.0981354 48.69842236 51 52 C52.98 52 54.96 52 57 52 C57 42.76 57 33.52 57 24 C56.34 24 55.68 24 55 24 C54.375 22.1875 54.375 22.1875 54 20 C54.99 18.515 54.99 18.515 56 17 C57.98 17.495 57.98 17.495 60 18 C60.38218767 19.65614657 60.71395102 21.32457024 61 23 C60.505 23.495 60.505 23.495 60 24 C59.8415735 26.0708472 59.74875578 28.14678029 59.68359375 30.22265625 C59.64169922 31.48271484 59.59980469 32.74277344 59.55664062 34.04101562 C59.51682404 35.38150736 59.47711186 36.7220022 59.4375 38.0625 C59.39431958 39.40691523 59.35070544 40.7513166 59.30664062 42.09570312 C59.20014642 45.3970234 59.0981354 48.69842236 59 52 C60.98 52 62.96 52 65 52 C65 50.02 65 48.04 65 46 C65.66 46 66.32 46 67 46 C67 47.98 67 49.96 67 52 C68.65 52 70.3 52 72 52 C72 41.44 72 30.88 72 20 C73.32 20 74.64 20 76 20 C76 30.89 76 41.78 76 53 C77.98 53.495 77.98 53.495 80 54 C80.66 54.33 81.32 54.66 82 55 C81.9685791 53.76697144 81.9685791 53.76697144 81.93652344 52.5090332 C81.85326691 48.77698036 81.80130753 45.04512306 81.75 41.3125 C81.71648437 40.01892578 81.68296875 38.72535156 81.6484375 37.39257812 C81.62910156 35.52182617 81.62910156 35.52182617 81.609375 33.61328125 C81.5779541 31.89298706 81.5779541 31.89298706 81.54589844 30.13793945 C82.29621464 24.95309314 85.66783256 22.08831093 89.5625 18.875 C93.15137305 15.80654733 96.53407012 12.58268881 99.875 9.25 C100.80054688 8.32703125 101.72609375 7.4040625 102.6796875 6.453125 C105.10076575 4.03168325 105.10076575 4.03168325 107 1 C108.65 1.33 110.3 1.66 112 2 C112 2.99 112 3.98 112 5 C110.6719005 5.94118999 109.33163239 6.86761266 107.95166016 7.73095703 C99.12693766 13.4691241 88.77848052 21.17563956 86.02832031 31.72851562 C84.7916635 40.08437658 85.25531057 48.61769259 86 57 C91.33345421 56.59918284 93.85843634 55.86677233 97.4375 51.875 C100.23250508 48.87594531 103.00212532 46.03276569 106.125 43.375 C109.46874666 40.51944035 112.53526799 37.48012341 115.5546875 34.28515625 C117 33 117 33 119 33 C119 32.34 119 31.68 119 31 C119.73605469 30.93941406 120.47210938 30.87882812 121.23046875 30.81640625 C122.20628906 30.73261719 123.18210938 30.64882813 124.1875 30.5625 C125.63189453 30.44068359 125.63189453 30.44068359 127.10546875 30.31640625 C129.78649602 30.02333849 132.3662986 29.57296246 135 29 C136.125 33.75 136.125 33.75 135 36 C134.01 35.9071875 133.02 35.814375 132 35.71875 C124.4556426 35.09399502 124.4556426 35.09399502 117.50390625 37.53515625 C115.52716288 39.59940134 113.77361027 41.7602739 112 44 C110.69409801 45.19729232 109.36040592 46.36501779 108 47.5 C104.39597214 50.59221325 101.06460799 53.89069885 97.76171875 57.30078125 C95.08178545 59.88563931 93.58842507 60.97692451 89.8125 61.125 C88.884375 61.08375 87.95625 61.0425 87 61 C87 61.66 87 62.32 87 63 C101.54135441 64.28448778 101.54135441 64.28448778 114.57421875 59.02734375 C120.03658211 53.9583689 123.86898125 49.20691265 126 42 C128.125 40.625 128.125 40.625 130 40 C131.32 40.99 132.64 41.98 134 43 C133.49396008 45.16874252 133.00016187 46.99967627 132 49 C131.16210938 49.20367187 130.32421875 49.40734375 129.4609375 49.6171875 C124.39640685 51.64071329 121.34796414 55.22699595 117.625 59.125 C116.88894531 59.87910156 116.15289062 60.63320312 115.39453125 61.41015625 C113.58694417 63.26469365 111.7893841 65.12792129 110 67 C113.73469613 67.37724203 115.42521162 67.44552975 118.44921875 65.1015625 C119.18785156 64.28429687 119.92648438 63.46703125 120.6875 62.625 C123.09293881 60.00768316 125.02870113 57.98086591 128 56 C131.11064304 56.19441519 133.26433729 56.50955819 135.875 58.25 C137.37422891 60.58213386 137.22023906 62.28371825 137 65 C136.34 65 135.68 65 135 65 C134.071875 63.9790625 134.071875 63.9790625 133.125 62.9375 C132.42375 62.298125 131.7225 61.65875 131 61 C127.1497038 61.25668641 125.40708735 63.33304462 122.875 66.0625 C121.61987331 67.40998507 120.33492972 68.73152782 119 70 C118.34 70 117.68 70 117 70 C117 70.66 117 71.32 117 72 C107.43 72 97.86 72 88 72 C88 73.65 88 75.3 88 77 C89.98 77 91.96 77 94 77 C94 77.99 94 78.98 94 80 C92.02 80 90.04 80 88 80 C88 81.32 88 82.64 88 84 C102.85 84 117.7 84 133 84 C132.67 85.32 132.34 86.64 132 88 C122.1 88 112.2 88 102 88 C102 88.66 102 89.32 102 90 C102.78503906 89.91878906 103.57007813 89.83757812 104.37890625 89.75390625 C112.8487414 89.2446769 112.8487414 89.2446769 116.21484375 91.453125 C118 93.3125 118 93.3125 119.5 95.17578125 C121.85674931 98.04193211 123.71773318 99.82984137 127.47265625 100.328125 C128.32730469 100.30234375 129.18195313 100.2765625 130.0625 100.25 C130.91972656 100.23453125 131.77695313 100.2190625 132.66015625 100.203125 C135.15371825 100.07820224 135.15371825 100.07820224 138 99 C137.1059808 102.08842997 136.58228792 103.63399045 133.8125 105.375 C129.95315749 106.23263167 127.82400703 106.16664621 124 105 C121.74596743 103.1029597 119.77597067 101.09111968 117.796875 98.91015625 C115.95193277 96.8047505 115.95193277 96.8047505 113 95 C111.68 95 110.36 95 109 95 C111.69161143 97.80820906 114.4059651 100.59335574 117.125 103.375 C117.88554687 104.1690625 118.64609375 104.963125 119.4296875 105.78125 C123.41412303 109.8343827 126.29680044 112.70142533 132 114 C133.5 115.875 133.5 115.875 134 118 C133.125 120.25 133.125 120.25 132 122 C129.625 122.1875 129.625 122.1875 127 122 C125 119 125 119 124.11352539 116.09521484 C122.22726874 110.85207477 118.30187781 107.52357585 114.4375 103.625 C113.66341797 102.79355469 112.88933594 101.96210938 112.09179688 101.10546875 C107.89144861 96.69862815 107.89144861 96.69862815 102.40283203 94.46386719 C99.66385379 94.40342664 99.66385379 94.40342664 96 95 C96.59441895 95.27803467 97.18883789 95.55606934 97.80126953 95.8425293 C103.75 98.625 103.75 98.625 106 102 C106.1953125 104.26171875 106.1953125 104.26171875 106.125 106.6875 C106.10695312 107.49574219 106.08890625 108.30398437 106.0703125 109.13671875 C106.04710937 109.75160156 106.02390625 110.36648437 106 111 C106.59079346 111.27183105 107.18158691 111.54366211 107.7902832 111.82373047 C109.95386144 112.97543967 111.53512338 114.19162452 113.35546875 115.8203125 C114.29036133 116.62275391 114.29036133 116.62275391 115.24414062 117.44140625 C116.53250006 118.55755282 117.80883496 119.68774275 119.07226562 120.83203125 C123.51242523 124.58594306 126.47735537 125.61054463 132.3059082 125.20654297 C133.14448364 125.1043042 133.14448364 125.1043042 134 125 C134.625 126.8125 134.625 126.8125 135 129 C134.34 129.99 133.68 130.98 133 132 C124.88208689 130.98526086 118.679137 126.29949414 112.75 121 C112.151875 120.47921875 111.55375 119.9584375 110.9375 119.421875 C109.27500789 117.96535537 107.63614367 116.48596112 106 115 C105.21625 114.31421875 104.4325 113.6284375 103.625 112.921875 C101.66957983 110.60921461 101.42601684 109.24228636 101.25 106.25 C101.19328125 105.45078125 101.1365625 104.6515625 101.078125 103.828125 C101.03945313 102.92320312 101.03945313 102.92320312 101 102 C97.41398088 100.62076188 94.08103044 99.81917295 90.27734375 99.43359375 C89.07259399 99.3087561 89.07259399 99.3087561 87.84350586 99.18139648 C87.23514893 99.12153564 86.62679199 99.0616748 86 99 C83.95664732 118.3272625 83.95664732 118.3272625 91.51953125 135.375 C95.76563684 139.75604864 100.33647997 143.70576415 105.17993164 147.41308594 C105.7805542 147.93676758 106.38117676 148.46044922 107 149 C107 149.66 107 150.32 107 151 C108.65 151.33 110.3 151.66 112 152 C111.625 153.9375 111.625 153.9375 111 156 C110.34 156.33 109.68 156.66 109 157 C105.67659055 155.89219685 105.00204887 155.09301846 102.8359375 152.4609375 C98.99496527 147.93299496 94.86001311 143.78202023 90.625 139.625 C89.19824009 138.22367253 87.77364493 136.8201365 86.3515625 135.4140625 C85.73104004 134.8051416 85.11051758 134.1962207 84.47119141 133.56884766 C81.613332 130.52128633 81.81671454 127.96813036 81.68359375 123.8984375 C81.64169922 122.68671875 81.59980469 121.475 81.55664062 120.2265625 C81.51732422 118.95554687 81.47800781 117.68453125 81.4375 116.375 C81.39431641 115.09625 81.35113281 113.8175 81.30664062 112.5 C81.20030114 109.33344652 81.09827167 106.16681247 81 103 C79.35 103.66 77.7 104.32 76 105 C76 116.22 76 127.44 76 139 C74.68 139 73.36 139 72 139 C72 128.11 72 117.22 72 106 C70.35 106 68.7 106 67 106 C67.22517969 110.76638793 67.22517969 110.76638793 69.625 114.625 C70.07875 115.07875 70.5325 115.5325 71 116 C70.68421481 117.67008042 70.34500905 119.33571107 70 121 C69.73119759 124.09989874 69.58711945 127.20483051 69.4375 130.3125 C69.39431641 131.14845703 69.35113281 131.98441406 69.30664062 132.84570312 C69.20114693 134.89696935 69.10012685 136.9484648 69 139 C67.68 139 66.36 139 65 139 C65.03480469 137.79601562 65.06960937 136.59203125 65.10546875 135.3515625 C65.1336028 133.77605558 65.16090337 132.20053362 65.1875 130.625 C65.21263672 129.8309375 65.23777344 129.036875 65.26367188 128.21875 C65.29004405 126.14413852 65.15486462 124.06899135 65 122 C63.515 121.01 63.515 121.01 62 120 C62.875 115.125 62.875 115.125 64 114 C64.23075082 112.65252916 64.41153063 111.29622435 64.5625 109.9375 C64.706875 108.638125 64.85125 107.33875 65 106 C63.02 106 61.04 106 59 106 C59.11872832 110.03867161 59.24300659 114.07713142 59.37231445 118.11547852 C59.4154884 119.48782776 59.45717501 120.86022467 59.49731445 122.23266602 C59.55544392 124.21122068 59.6194571 126.1895997 59.68359375 128.16796875 C59.72025146 129.35672607 59.75690918 130.5454834 59.79467773 131.77026367 C59.97546411 134.61404847 60.35809408 137.22906805 61 140 C59.35 140.33 57.7 140.66 56 141 C55.61781233 139.34385343 55.28604898 137.67542976 55 136 C55.33 135.67 55.66 135.34 56 135 C56.15858842 132.85613343 56.25129298 130.70733162 56.31640625 128.55859375 C56.35830078 127.25341797 56.40019531 125.94824219 56.44335938 124.60351562 C56.48317608 123.2148467 56.52288825 121.82617478 56.5625 120.4375 C56.60567989 119.04490817 56.649294 117.65232972 56.69335938 116.25976562 C56.79985876 112.83995199 56.90186923 109.42006237 57 106 C55.02 106 53.04 106 51 106 C51.11872832 110.03867161 51.24300659 114.07713142 51.37231445 118.11547852 C51.4154884 119.48782776 51.45717501 120.86022467 51.49731445 122.23266602 C51.55544392 124.21122068 51.6194571 126.1895997 51.68359375 128.16796875 C51.72025146 129.35672607 51.75690918 130.5454834 51.79467773 131.77026367 C51.92346568 134.95763265 51.92346568 134.95763265 52.58227539 137.86450195 C52.72012451 138.56921631 52.85797363 139.27393066 53 140 C52 141 52 141 49.4375 141.0625 C48.633125 141.041875 47.82875 141.02125 47 141 C46.505 138.525 46.505 138.525 46 136 C46.66 135.67 47.32 135.34 48 135 C48.33 125.43 48.66 115.86 49 106 C46.69 106 44.38 106 42 106 C42.22517969 110.76638793 42.22517969 110.76638793 44.625 114.625 C45.07875 115.07875 45.5325 115.5325 46 116 C45.6875 118.6875 45.6875 118.6875 45 121 C43.515 121.495 43.515 121.495 42 122 C42 127.61 42 133.22 42 139 C40.68 139 39.36 139 38 139 C38.01160156 137.71222656 38.02320312 136.42445313 38.03515625 135.09765625 C38.0445327 133.41927228 38.05363305 131.74088674 38.0625 130.0625 C38.07506836 128.78729492 38.07506836 128.78729492 38.08789062 127.48632812 C38.09272461 126.27299805 38.09272461 126.27299805 38.09765625 125.03515625 C38.10551147 123.91185913 38.10551147 123.91185913 38.11352539 122.76586914 C38.19341752 120.97332261 38.19341752 120.97332261 37 120 C36.95936168 118.33382885 36.957279 116.66611905 37 115 C37.66 114.67 38.32 114.34 39 114 C39.46523063 112.10466658 39.46523063 112.10466658 39.625 109.9375 C39.810625 107.9884375 39.810625 107.9884375 40 106 C38.35 106 36.7 106 35 106 C35 116.89 35 127.78 35 139 C33.68 139 32.36 139 31 139 C31 127.45 31 115.9 31 104 C29.68 103.67 28.36 103.34 27 103 C27.00636475 103.8971875 27.01272949 104.794375 27.01928711 105.71875 C27.02645332 109.08209246 27.00216938 112.44227667 26.95727539 115.80517578 C26.94422138 117.25401035 26.94332254 118.70301178 26.95532227 120.15185547 C27.05355694 133.72695196 27.05355694 133.72695196 22.8359375 138.59375 C21.58308139 139.75756173 20.30469412 140.89461344 19 142 C17.91064528 143.12589526 16.83072501 144.26101664 15.76171875 145.40625 C14.73955037 146.44004862 13.71484371 147.47134423 12.6875 148.5 C11.90149414 149.304375 11.90149414 149.304375 11.09960938 150.125 C9.77253198 151.45717501 8.39041258 152.73407049 7 154 C6.34 154 5.68 154 5 154 C4.67 154.99 4.34 155.98 4 157 C2.35 156.67 0.7 156.34 -1 156 C-0.875 154.25 -0.875 154.25 0 152 C2.58510846 150.19790004 5.21227976 148.49380698 7.88183594 146.8203125 C13.7459035 142.92072225 19.75864138 138.24983605 21.45422363 131.07904053 C23.09441074 120.5338033 22.53870059 109.62022591 22 99 C11.61934004 98.04297587 11.61934004 98.04297587 2.00048828 101.26025391 C-2.27122816 104.97163184 -5.68578218 109.43728385 -9 114 C-16.93031359 124.87108014 -16.93031359 124.87108014 -24.60546875 126.79296875 C-27.26994196 127.02333919 -29.41589037 126.64717488 -32 126 C-32.625 123.6875 -32.625 123.6875 -33 121 C-32.34 120.01 -31.68 119.02 -31 118 C-28.375 117.8125 -28.375 117.8125 -26 118 C-25.67 118.66 -25.34 119.32 -25 120 C-22.80085503 120.59197613 -22.80085503 120.59197613 -20 120 C-17.36121135 117.95039457 -15.2083142 115.49800703 -13 113 C-12.43152344 112.36320312 -11.86304687 111.72640625 -11.27734375 111.0703125 C-9.50410362 109.05875536 -7.75125763 107.03071363 -6 105 C-4.56675235 103.35046225 -3.1292371 101.70462294 -1.6875 100.0625 C-0.70330078 98.93521484 -0.70330078 98.93521484 0.30078125 97.78515625 C2 96 2 96 4 95 C-2.11145876 94.03810108 -7.00121188 93.54521702 -12.171875 97.30859375 C-14.98620574 100.02643846 -17.49072928 103.00060462 -20 106 C-23.57865643 109.94840691 -23.57865643 109.94840691 -27.0625 110.375 C-30 110 -30 110 -33 108 C-33 107.34 -33 106.68 -33 106 C-31.19982422 106.17789063 -31.19982422 106.17789063 -29.36328125 106.359375 C-25.59044275 106.35605018 -25.07330979 106.05909382 -21.91796875 103.515625 C-20.98472833 102.44680805 -20.07467135 101.35735466 -19.1875 100.25 C-18.72408203 99.71117187 -18.26066406 99.17234375 -17.78320312 98.6171875 C-15.92741322 96.44015214 -14.19084676 94.34551995 -12.8046875 91.8359375 C-11 90 -11 90 -7.72192383 89.54589844 C-6.3834592 89.54652985 -5.04488762 89.56902269 -3.70703125 89.609375 C-2.64798836 89.61786469 -2.64798836 89.61786469 -1.56755066 89.62652588 C0.68482626 89.64889589 2.93560503 89.69908801 5.1875 89.75 C6.71547179 89.77006444 8.24346856 89.78831532 9.77148438 89.8046875 C13.51493756 89.84876198 17.25719795 89.91778926 21 90 C21 89.01 21 88.02 21 87 C20.01 87.495 20.01 87.495 19 88 C17.13221793 88.09731857 15.26093957 88.13076748 13.390625 88.1328125 C11.67806519 88.13571289 11.67806519 88.13571289 9.9309082 88.13867188 C8.7162085 88.13416016 7.50150879 88.12964844 6.25 88.125 C5.02692139 88.12306641 3.80384277 88.12113281 2.54370117 88.11914062 C-5.67837281 88.07978748 -13.81656016 87.84708435 -22 87 C-20.33469793 84.70330378 -19.00755164 83.17159463 -16.12854004 82.68127441 C-13.76649625 82.6336789 -11.43763639 82.70760603 -9.078125 82.828125 C-8.21813904 82.85598083 -7.35815308 82.88383667 -6.47210693 82.91253662 C-3.73031125 83.00577125 -0.99062884 83.12750038 1.75 83.25 C3.61060897 83.31828814 5.47128719 83.38471645 7.33203125 83.44921875 C11.88910483 83.61125679 16.44449184 83.79885426 21 84 C21 82.35 21 80.7 21 79 C19.35 79 17.7 79 16 79 C16 78.67 16 78.34 16 78 C17.65 78 19.3 78 21 78 C21 76.02 21 74.04 21 72 C19.42702148 72.01571045 19.42702148 72.01571045 17.82226562 72.03173828 C13.90107691 72.06816344 9.97990292 72.09098178 6.05859375 72.10986328 C4.36716184 72.11986984 2.67574701 72.13347931 0.984375 72.15087891 C-1.45837642 72.17536403 -3.90089749 72.18653672 -6.34375 72.1953125 C-7.46299866 72.21079636 -7.46299866 72.21079636 -8.6048584 72.22659302 C-13.71195154 72.22766432 -18.08611717 71.40327286 -23 70 C-23 69.01 -23 68.02 -23 67 C-16.47085202 66.87443946 -16.47085202 66.87443946 -14.125 67.5 C-11.45410947 68.12844483 -8.99055237 68.09512562 -6.25 68.0625 C-5.26515625 68.05347656 -4.2803125 68.04445313 -3.265625 68.03515625 C-2.51796875 68.02355469 -1.7703125 68.01195313 -1 68 C-1.88042969 67.97421875 -2.76085937 67.9484375 -3.66796875 67.921875 C-4.82941406 67.86515625 -5.99085937 67.8084375 -7.1875 67.75 C-8.33605469 67.70359375 -9.48460938 67.6571875 -10.66796875 67.609375 C-14.51848693 66.90517707 -16.2206446 65.70313907 -19 63 C-19.33 62.34 -19.66 61.68 -20 61 C-24.54805635 60.82164485 -27.8794254 61.00214565 -32 63 C-31.67 61.35 -31.34 59.7 -31 58 C-30.34 58 -29.68 58 -29 58 C-29 57.34 -29 56.68 -29 56 C-25.59857328 55.64334555 -22.38799386 55.46670467 -19 56 C-17.46875 57.3359375 -17.46875 57.3359375 -16.3125 59 C-15.549375 59.99 -14.78625 60.98 -14 62 C-10.40336916 62.2502123 -10.40336916 62.2502123 -7 62 C-9.17038258 59.71227505 -11.36408878 57.4482775 -13.5625 55.1875 C-14.17158203 54.54490234 -14.78066406 53.90230469 -15.40820312 53.24023438 C-19.3583057 49.20653175 -22.65278232 46.85122465 -28 45 C-28.125 42.625 -28.125 42.625 -28 40 C-27.34 39.34 -26.68 38.68 -26 38 C-23.38419521 38.3269756 -21.35921863 38.82039068 -19 40 C-19.1340625 40.81855469 -19.268125 41.63710937 -19.40625 42.48046875 C-18.61049058 49.37449988 -13.07758953 54.03597584 -8.15625 58.58203125 C0.14538434 65.01182579 11.03289693 63.82892741 21 63 C21 62.34 21 61.68 21 61 C20.38479492 61.02094727 19.76958984 61.04189453 19.13574219 61.06347656 C16.34066191 61.14677017 13.54584285 61.19870013 10.75 61.25 C9.78191406 61.28351563 8.81382813 61.31703125 7.81640625 61.3515625 C0.63678667 61.45059174 0.63678667 61.45059174 -2.671875 59.109375 C-4 57 -4 57 -4 55 C-4.66 55 -5.32 55 -6 55 C-6.37125 53.14375 -6.37125 53.14375 -6.75 51.25 C-9.21910748 43.91288915 -14.86450476 38.47705229 -21 34 C-24.61233281 33.10771062 -27.38010946 33.4014922 -31 34 C-31.66 33.67 -32.32 33.34 -33 33 C-32.67 31.35 -32.34 29.7 -32 28 C-28.6796475 26.71470226 -26.26145936 26.95976406 -23 28.125 C-15.80144317 31.53548378 -10.16567636 38.07583948 -5 44 C-5 44.66 -5 45.32 -5 46 C-4.34 46 -3.68 46 -3 46 C-2.51171875 47.98567708 -2.0234375 49.97135417 -1.53515625 51.95703125 C-1.08989295 53.65683202 -0.55566015 55.33301954 0 57 C7.26 57 14.52 57 22 57 C23.94116499 35.69044429 23.94116499 35.69044429 16.32519531 16.97363281 C13.36865211 14.37193598 10.30005936 12.14035337 7 10 C5.37060446 8.7138826 3.74451851 7.42353286 2.125 6.125 C1.09375 5.42375 0.0625 4.7225 -1 4 C-0.67 2.68 -0.34 1.36 0 0 Z " fill="#86C7BE" transform="translate(56,32)"/>
<path d="M0 0 C1.375 1.37109375 1.375 1.37109375 3.25 3.74609375 C3.58 1.76609375 3.91 -0.21390625 4.25 -2.25390625 C6.56 -2.25390625 8.87 -2.25390625 11.25 -2.25390625 C11.37748648 4.68355536 11.4646377 11.62071141 11.5246582 18.55908203 C11.54969708 20.9159677 11.58373841 23.27277654 11.62719727 25.62939453 C11.6883159 29.03046703 11.71631727 32.43050695 11.73828125 35.83203125 C11.76408768 36.87410736 11.7898941 37.91618347 11.81648254 38.98983765 C11.81920974 46.21325806 10.3658763 51.73238282 6.25 57.74609375 C0.55687453 63.13796391 -5.9083603 63.08869995 -13.35546875 63.02734375 C-18.98710516 62.56074096 -21.3849979 60.18293807 -25.125 56.24609375 C-26.75 53.74609375 -26.75 53.74609375 -26.75 49.74609375 C-23.4375 49.43359375 -23.4375 49.43359375 -19.75 49.74609375 C-18 52.18359375 -18 52.18359375 -16.75 54.74609375 C-11.64302969 56.44841719 -7.34624372 56.33729513 -2.375 54.49609375 C0.44791685 52.61414918 1.37564936 51.98119111 2.25 48.74609375 C2.39462093 46.05511146 2.33999247 43.44586783 2.25 40.74609375 C1.46625 41.40609375 0.6825 42.06609375 -0.125 42.74609375 C-4.45807712 45.60755977 -8.73539186 45.47577357 -13.75 44.74609375 C-19.39360241 43.33020763 -22.14571697 40.6447372 -25.1875 35.74609375 C-29.7890699 27.52094429 -29.93479182 18.47055757 -27.6875 9.37109375 C-25.96535129 4.34209611 -23.27864367 1.45763091 -18.75 -1.25390625 C-12.77639577 -3.95893458 -5.50914935 -3.94740389 0 0 Z " fill="#759EAD" transform="translate(624.75,66.25390625)"/>
<path d="M0 0 C4.29 0 8.58 0 13 0 C18.61 16.83 24.22 33.66 30 51 C31.32 47.04 32.64 43.08 34 39 C34.96702464 36.5824384 35.93430299 34.16492351 36.91992188 31.75488281 C39.22777016 25.86840901 41.20847742 19.85795924 43.25 13.875 C43.71330897 12.52335772 44.17684911 11.17179465 44.640625 9.8203125 C45.7630775 6.54778199 46.88241753 3.27419733 48 0 C51.96 0 55.92 0 60 0 C60 20.46 60 40.92 60 62 C57.36 62 54.72 62 52 62 C51.67 45.83 51.34 29.66 51 13 C49.85660156 16.45339844 48.71320313 19.90679687 47.53515625 23.46484375 C46.43048791 26.79442876 45.32479195 30.12367082 44.21899414 33.45288086 C43.44871084 35.77381257 42.67950295 38.09510147 41.91137695 40.41674805 C40.80960476 43.74621694 39.70402089 47.07439853 38.59765625 50.40234375 C38.25283707 51.44712387 37.90801788 52.49190399 37.55274963 53.56834412 C37.07236488 55.00972496 37.07236488 55.00972496 36.58227539 56.48022461 C36.30025772 57.33071884 36.01824005 58.18121307 35.72767639 59.05747986 C35 61 35 61 34 62 C31.32941149 62.14115161 28.67567762 62.04247107 26 62 C21.77477597 52.1939862 18.59469014 42.00388978 15.25 31.875 C13.1875 25.64625 11.125 19.4175 9 13 C8.67 29.17 8.34 45.34 8 62 C5.36 62 2.72 62 0 62 C0 41.54 0 21.08 0 0 Z " fill="#729CAB" transform="translate(289,48)"/>
<path d="M0 0 C5.52580092 2.80002196 8.92345019 5.85284921 10.97265625 11.78125 C11.59647512 13.9776901 12.03515625 15.75020472 12.03515625 18.03125 C9.39515625 18.03125 6.75515625 18.03125 4.03515625 18.03125 C3.7928125 17.48855469 3.55046875 16.94585937 3.30078125 16.38671875 C0.74053339 10.8100972 0.74053339 10.8100972 -3.96484375 7.03125 C-9.24179215 5.2722672 -14.70238925 5.26158793 -19.90234375 7.34375 C-23.16789162 8.83636123 -23.16789162 8.83636123 -24.96484375 12.03125 C-25.54903589 16.96516175 -25.54903589 16.96516175 -23.27636719 21.16064453 C-20.65690108 23.28045329 -18.88675339 23.84781227 -15.60546875 24.5234375 C-14.57164062 24.75417969 -13.5378125 24.98492187 -12.47265625 25.22265625 C-10.31731311 25.6749165 -8.16106816 26.12290216 -6.00390625 26.56640625 C0.72360258 28.07717436 6.18706819 29.93153648 11.03515625 35.03125 C13.99945258 40.08619391 13.84631194 45.33123702 13.03515625 51.03125 C10.82580681 56.23960229 7.47979889 59.11408953 2.41015625 61.46875 C-6.10298924 64.79933148 -15.16040908 65.43241586 -23.82421875 62.14453125 C-28.63950951 59.64022858 -32.66811184 56.19246985 -35.46484375 51.53125 C-36.10626366 48.32415044 -36.09270493 45.29171013 -35.96484375 42.03125 C-33.32484375 42.03125 -30.68484375 42.03125 -27.96484375 42.03125 C-27.78308594 42.64613281 -27.60132813 43.26101562 -27.4140625 43.89453125 C-27.03701172 45.10689453 -27.03701172 45.10689453 -26.65234375 46.34375 C-26.28689453 47.54451172 -26.28689453 47.54451172 -25.9140625 48.76953125 C-24.90128952 51.18268168 -23.99449333 52.40251886 -21.96484375 54.03125 C-18.32441112 55.24472754 -14.94429189 55.2537472 -11.15234375 55.28125 C-10.45302734 55.301875 -9.75371094 55.3225 -9.03320312 55.34375 C-4.25119441 55.37953678 -1.00948376 54.58315151 3.03515625 52.03125 C4.60031743 48.90092764 4.57549325 45.44051916 4.03515625 42.03125 C2.88236208 39.48943335 1.80071295 38.32838296 -0.81542969 37.31298828 C-3.18555512 36.64276076 -5.56256436 36.07490064 -7.96484375 35.53125 C-9.68573624 35.10756572 -11.40579823 34.68049347 -13.125 34.25 C-13.95660645 34.04375 -14.78821289 33.8375 -15.64501953 33.625 C-27.37276454 30.62332921 -27.37276454 30.62332921 -31.58984375 26.40625 C-34.55779357 21.27979123 -34.3890737 16.89560516 -33.96484375 11.03125 C-32.37203916 5.40334045 -28.85745878 3.23806055 -24.12109375 0.23046875 C-17.00326012 -3.72818148 -7.41221612 -2.90569634 0 0 Z " fill="#749EAC" transform="translate(395.96484375,47.96875)"/>
<path d="M0 0 C3.61830179 3.36672253 4.79257901 7.55226473 5.25073242 12.32592773 C5.22716675 14.15619507 5.22716675 14.15619507 5.203125 16.0234375 C5.19888016 16.67941422 5.19463531 17.33539093 5.19026184 18.01124573 C5.17364404 20.07955286 5.13602863 22.14683776 5.09765625 24.21484375 C5.08258736 25.628241 5.06890284 27.04165373 5.05664062 28.45507812 C5.02379729 31.8961581 4.9721364 35.33665094 4.91015625 38.77734375 C6.56015625 38.77734375 8.21015625 38.77734375 9.91015625 38.77734375 C9.91015625 40.42734375 9.91015625 42.07734375 9.91015625 43.77734375 C6.86031629 45.30226373 4.26781935 45.01296923 0.91015625 44.77734375 C-1.70577528 42.94619168 -2.0597383 41.86766009 -3.08984375 38.77734375 C-3.56035156 39.12667969 -4.03085937 39.47601563 -4.515625 39.8359375 C-5.13824219 40.29097656 -5.76085937 40.74601562 -6.40234375 41.21484375 C-7.01722656 41.66730469 -7.63210938 42.11976562 -8.265625 42.5859375 C-13.22341477 45.82389441 -19.41496403 45.57548812 -25.08984375 44.77734375 C-28.63708678 42.82666019 -31.27361813 40.409795 -33.08984375 36.77734375 C-33.6640946 32.07036958 -33.54538927 28.65589583 -31.33984375 24.40234375 C-28.07366961 20.59180726 -25.5092693 18.56021168 -20.52734375 17.71484375 C-19.66238281 17.56144531 -18.79742187 17.40804687 -17.90625 17.25 C-16.97683594 17.09402344 -16.04742187 16.93804687 -15.08984375 16.77734375 C-13.04787894 16.40397061 -11.0062041 16.02900766 -8.96484375 15.65234375 C-7.34000454 15.35978267 -5.7150637 15.0677823 -4.08984375 14.77734375 C-3.64599899 10.19862949 -3.64599899 10.19862949 -5.23046875 6.07421875 C-7.86021236 4.24002783 -9.84698807 4.34377497 -13.02734375 4.33984375 C-14.06761719 4.32050781 -15.10789062 4.30117187 -16.1796875 4.28125 C-19.74048063 4.88825769 -20.88150495 5.97942504 -23.08984375 8.77734375 C-23.87711155 10.91554035 -23.87711155 10.91554035 -24.08984375 12.77734375 C-26.39984375 12.77734375 -28.70984375 12.77734375 -31.08984375 12.77734375 C-30.80059349 7.95650616 -30.03157129 4.66900403 -26.66015625 1.06640625 C-18.77476866 -5.40667312 -8.49578159 -4.57939588 0 0 Z " fill="#759FAD" transform="translate(474.08984375,66.22265625)"/>
<path d="M0 0 C6.76526967 6.76526967 7.13838087 13.5221896 8 23 C-2.89 23 -13.78 23 -25 23 C-23.70780199 31.17662628 -23.70780199 31.17662628 -21.4375 34.5 C-17.76426306 36.7604535 -14.27943052 37.1860622 -10 37 C-6.11768666 35.68147849 -4.46210866 34.64098943 -2.0625 31.3125 C0 29 0 29 3.75 28.6875 C4.8225 28.790625 5.895 28.89375 7 29 C4.76673341 34.69482981 2.75376446 39.33493312 -2.6875 42.625 C-6.45032093 44.18692567 -9.13131654 44.33694927 -13.1875 44.25 C-14.39792969 44.23453125 -15.60835937 44.2190625 -16.85546875 44.203125 C-20 44 -20 44 -23 43 C-23 42.34 -23 41.68 -23 41 C-23.5775 40.7525 -24.155 40.505 -24.75 40.25 C-29.87516299 37.40268723 -31.83252624 33.97210754 -33.45703125 28.48828125 C-35.45354928 19.33877058 -33.52506358 11.8604182 -28.75 3.921875 C-21.76064385 -5.5296407 -9.3285635 -6.11250628 0 0 Z " fill="#759FAD" transform="translate(799,67)"/>
<path d="M0 0 C1.28583984 0.23976562 1.28583984 0.23976562 2.59765625 0.484375 C5.15922218 1.32255016 6.30339629 2.12834403 7.9375 4.25 C7.9375 4.91 7.9375 5.57 7.9375 6.25 C8.9275 6.25 9.9175 6.25 10.9375 6.25 C11.2675 5.26 11.5975 4.27 11.9375 3.25 C16.53605219 -0.1035783 21.26689461 -1.59008969 26.9375 -0.75 C31.78294115 1.7202249 34.3512172 4.50165036 36.9375 9.25 C37.45093071 12.15868715 37.40626669 14.98359327 37.328125 17.9296875 C37.32246521 18.74245148 37.31680542 19.55521545 37.31097412 20.39260864 C37.28870838 22.97068945 37.23853315 25.54734431 37.1875 28.125 C37.1674222 29.88018816 37.14917367 31.63539826 37.1328125 33.390625 C37.08887612 37.67762689 37.01991911 41.96357227 36.9375 46.25 C34.6275 46.25 32.3175 46.25 29.9375 46.25 C29.907771 44.85092407 29.907771 44.85092407 29.87744141 43.42358398 C29.79896957 39.93635635 29.71226486 36.44952938 29.62011719 32.96264648 C29.58202511 31.45849377 29.54713908 29.95425608 29.515625 28.44995117 C29.46954105 26.27752477 29.41162346 24.10567345 29.3515625 21.93359375 C29.3201416 20.62962646 29.2887207 19.32565918 29.25634766 17.98217773 C28.92408852 14.09301585 28.13022876 10.94745915 26.9375 7.25 C19.92184378 6.85503041 19.92184378 6.85503041 13.9375 10.25 C10.89549153 14.34257279 10.52959601 17.47413411 10.42578125 22.51953125 C10.40783005 23.20053391 10.38987885 23.88153656 10.37138367 24.58317566 C10.31751369 26.7428888 10.28346218 28.90238399 10.25 31.0625 C10.21680609 32.53323331 10.18231451 34.00393793 10.14648438 35.47460938 C10.06180284 39.06619687 9.99488039 42.65786076 9.9375 46.25 C7.6275 46.25 5.3175 46.25 2.9375 46.25 C2.92291748 45.24622314 2.90833496 44.24244629 2.89331055 43.20825195 C2.83517948 39.4712425 2.75794835 35.73482631 2.67504883 31.99829102 C2.6418689 30.38348037 2.61381542 28.76855569 2.59106445 27.15356445 C2.55738975 24.82714408 2.50507037 22.50176217 2.44921875 20.17578125 C2.44282883 19.45787918 2.4364389 18.73997711 2.42985535 18.00032043 C2.30175058 13.5973424 1.54584254 10.81179954 -1.0625 7.25 C-6.70691981 7.22576437 -6.70691981 7.22576437 -11.73828125 9.44140625 C-16.18205261 14.46195029 -16.15723465 20.12662843 -16.37890625 26.5234375 C-16.42080078 27.67714844 -16.46269531 28.83085938 -16.50585938 30.01953125 C-16.54517578 31.20933594 -16.58449219 32.39914063 -16.625 33.625 C-16.68977539 35.44451172 -16.68977539 35.44451172 -16.75585938 37.30078125 C-16.86155513 40.28375032 -16.96365321 43.26679742 -17.0625 46.25 C-19.3725 46.25 -21.6825 46.25 -24.0625 46.25 C-24.0625 31.4 -24.0625 16.55 -24.0625 1.25 C-21.7525 1.25 -19.4425 1.25 -17.0625 1.25 C-17.0625 2.9 -17.0625 4.55 -17.0625 6.25 C-16.4025 6.25 -15.7425 6.25 -15.0625 6.25 C-14.7325 5.26 -14.4025 4.27 -14.0625 3.25 C-9.23254126 -0.14402506 -5.77655759 -1.15008386 0 0 Z " fill="#729CAB" transform="translate(719.0625,63.75)"/>
<path d="M0 0 C1.51815699 0.00015911 3.0363194 0.00585313 4.55444336 0.01586914 C5.35208603 0.01728409 6.1497287 0.01869904 6.97154236 0.02015686 C9.52916146 0.02577223 12.08669429 0.03832727 14.64428711 0.05102539 C16.37410356 0.05603841 18.10392137 0.06060166 19.83374023 0.06469727 C24.08312264 0.07574664 28.33244023 0.09302153 32.58178711 0.11352539 C33.9322675 2.81448616 33.71142288 4.94079056 33.71459961 7.96118164 C33.7165332 9.70431641 33.7165332 9.70431641 33.71850586 11.48266602 C33.71463867 12.70147461 33.71077148 13.9202832 33.70678711 15.17602539 C33.71258789 17.01003906 33.71258789 17.01003906 33.71850586 18.88110352 C33.7172168 20.0419043 33.71592773 21.20270508 33.71459961 22.39868164 C33.71347168 23.46997314 33.71234375 24.54126465 33.71118164 25.64501953 C33.58178711 28.11352539 33.58178711 28.11352539 32.58178711 29.11352539 C29.92722518 29.21448103 27.29923535 29.25323538 24.64428711 29.24633789 C23.45138062 29.24777298 23.45138062 29.24777298 22.234375 29.24923706 C20.5497225 29.24991882 18.8650674 29.24806482 17.18041992 29.24389648 C14.59279514 29.23854814 12.00534395 29.24384158 9.41772461 29.25024414 C7.78491172 29.24958336 6.15209895 29.24830219 4.51928711 29.24633789 C3.74012939 29.24836212 2.96097168 29.25038635 2.15820312 29.25247192 C-3.30326185 29.22847644 -3.30326185 29.22847644 -4.41821289 28.11352539 C-4.51804347 26.12595511 -4.54902042 24.1348502 -4.55102539 22.14477539 C-4.55231445 20.9343457 -4.55360352 19.72391602 -4.55493164 18.47680664 C-4.55106445 17.20192383 -4.54719727 15.92704102 -4.54321289 14.61352539 C-4.54708008 13.33864258 -4.55094727 12.06375977 -4.55493164 10.75024414 C-4.55364258 9.53981445 -4.55235352 8.32938477 -4.55102539 7.08227539 C-4.54989746 5.96272461 -4.54876953 4.84317383 -4.54760742 3.68969727 C-4.35036119 -0.23736362 -4.0550513 0.13467601 0 0 Z " fill="#84C6BD" transform="translate(95.418212890625,95.886474609375)"/>
<path d="M0 0 C5.34147814 0.62840919 9.4258042 3.55647531 13.125 7.375 C15.57056361 11.97841385 15.32290419 16.99150919 15.28515625 22.08203125 C15.2837413 22.80742599 15.28232635 23.53282074 15.28086853 24.28019714 C15.27529931 26.5826745 15.26275261 28.88505235 15.25 31.1875 C15.24498102 32.75455588 15.24041881 34.3216133 15.23632812 35.88867188 C15.22533998 39.71748589 15.20809673 43.54622611 15.1875 47.375 C12.5475 47.375 9.9075 47.375 7.1875 47.375 C7.16768066 46.3962793 7.14786133 45.41755859 7.12744141 44.40917969 C7.05125376 40.77106403 6.96255705 37.13334147 6.87011719 33.49560547 C6.83188171 31.92244235 6.79701934 30.34919342 6.765625 28.77587891 C6.71985578 26.51173277 6.66188239 24.24817453 6.6015625 21.984375 C6.59001129 21.28318542 6.57846008 20.58199585 6.56655884 19.85955811 C6.45774569 16.24307911 6.30352743 13.37959884 4.1875 10.375 C0.43293433 7.87195622 -1.35995934 7.92219926 -5.8125 8.375 C-9.12479259 10.06239434 -11.2260177 11.24328224 -12.95458984 14.57885742 C-13.98671766 17.94281867 -14.13674633 20.90798121 -14.2265625 24.42578125 C-14.24592865 25.08458786 -14.2652948 25.74339447 -14.2852478 26.42216492 C-14.34465941 28.51048143 -14.39127291 30.59885424 -14.4375 32.6875 C-14.47571532 34.11004905 -14.51476909 35.53257584 -14.5546875 36.95507812 C-14.65032796 40.42818074 -14.73449973 43.90145132 -14.8125 47.375 C-17.4525 47.375 -20.0925 47.375 -22.8125 47.375 C-22.83777062 40.98462769 -22.85533317 34.59426817 -22.86743164 28.20385742 C-22.87247308 26.02807127 -22.87930607 23.85228853 -22.88793945 21.67651367 C-22.90001338 18.55646933 -22.90573005 15.43646962 -22.91015625 12.31640625 C-22.91531754 11.33724747 -22.92047882 10.35808868 -22.92579651 9.34925842 C-22.92587204 8.44840012 -22.92594757 7.54754181 -22.92602539 6.61938477 C-22.928246 5.82218521 -22.93046661 5.02498566 -22.93275452 4.20362854 C-22.8125 2.375 -22.8125 2.375 -21.8125 1.375 C-19.47952567 1.33407063 -17.14544775 1.33258277 -14.8125 1.375 C-14.4825 3.025 -14.1525 4.675 -13.8125 6.375 C-12.925625 5.570625 -12.03875 4.76625 -11.125 3.9375 C-7.46949436 0.90694029 -4.61897902 0.61586387 0 0 Z " fill="#79A1AF" transform="translate(668.8125,62.625)"/>
<path d="M0 0 C2.68042393 3.07268109 3.8969346 4.8147479 4.25 8.875 C4.1675 9.57625 4.085 10.2775 4 11 C1.69 11 -0.62 11 -3 11 C-3.45375 10.030625 -3.9075 9.06125 -4.375 8.0625 C-5.65786221 4.92920418 -5.65786221 4.92920418 -8 4 C-10.30410044 3.76395831 -10.30410044 3.76395831 -12.875 3.75 C-13.73867188 3.72421875 -14.60234375 3.6984375 -15.4921875 3.671875 C-18.45024649 4.05891076 -19.79201784 5.04875995 -22 7 C-21.67 8.98 -21.34 10.96 -21 13 C-20.42556152 13.15557373 -19.85112305 13.31114746 -19.25927734 13.47143555 C-16.62651895 14.19421075 -14.00101212 14.94060225 -11.375 15.6875 C-10.47136719 15.93177734 -9.56773437 16.17605469 -8.63671875 16.42773438 C-2.95945118 18.06461079 0.80592163 19.7991351 5 24 C6.65377084 27.30754168 6.76254661 30.45384829 6 34 C2.97948849 38.86685234 -0.41784229 42.39940984 -6 44 C-9.6640625 44.23046875 -9.6640625 44.23046875 -13.625 44.1875 C-14.93726563 44.18105469 -16.24953125 44.17460938 -17.6015625 44.16796875 C-21 44 -21 44 -24 43 C-24 42.34 -24 41.68 -24 41 C-24.598125 40.7525 -25.19625 40.505 -25.8125 40.25 C-28.40409822 38.76908673 -29.49675313 37.57699464 -31 35 C-31.75 31.8125 -31.75 31.8125 -32 29 C-31 28 -31 28 -27.4375 27.9375 C-26.303125 27.958125 -25.16875 27.97875 -24 28 C-23.5875 29.11375 -23.175 30.2275 -22.75 31.375 C-21.76486232 33.62220347 -21.19723445 34.83198547 -19.3125 36.4375 C-12.97410039 37.97927288 -8.56333847 37.33800308 -3 34 C-3 32.02 -3 30.04 -3 28 C-3.66 27.67 -4.32 27.34 -5 27 C-5 26.34 -5 25.68 -5 25 C-5.68964844 24.89042969 -6.37929688 24.78085938 -7.08984375 24.66796875 C-21.86550456 22.17495602 -21.86550456 22.17495602 -28.0625 17.875 C-30.76034182 13.87175085 -30.76908908 10.69144339 -30 6 C-28.16072383 1.40180957 -25.24155645 -0.57625346 -21 -3 C-13.83921572 -5.86431371 -6.26534905 -4.00046845 0 0 Z " fill="#759FAD" transform="translate(564,67)"/>
<path d="M0 0 C3.38841449 2.51959026 3.90658628 3.53293138 4.75 7.75 C4.8325 8.8225 4.915 9.895 5 11 C2.69 11 0.38 11 -2 11 C-2.45375 10.030625 -2.9075 9.06125 -3.375 8.0625 C-4.65786221 4.92920418 -4.65786221 4.92920418 -7 4 C-8.62165752 3.87851695 -10.24884327 3.82456348 -11.875 3.8125 C-12.73867188 3.79832031 -13.60234375 3.78414063 -14.4921875 3.76953125 C-17.1241288 4.01140748 -18.73980544 4.67016459 -21 6 C-21 7.98 -21 9.96 -21 12 C-15.63078222 14.88922847 -10.31966707 16.34995275 -4.4375 17.83984375 C-0.28960602 19.23975797 3.96087031 20.92174061 6 25 C6.55973414 29.58798472 6.42464043 33.09976229 4.4375 37.3125 C0.30936197 41.8640368 -2.45282413 43.69649463 -8.5078125 44.41796875 C-15.26864717 44.66662768 -21.02538619 44.73323625 -26.546875 40.49609375 C-30.05377769 36.88549232 -31 33.95482267 -31 29 C-28.69 29 -26.38 29 -24 29 C-23.608125 29.94875 -23.21625 30.8975 -22.8125 31.875 C-21.29370533 35.05208525 -21.29370533 35.05208525 -18.8125 36.375 C-14.06872031 37.42917326 -9.81112415 37.38534556 -5.0625 36.375 C-2.70282348 35.10421836 -2.70282348 35.10421836 -2 32.0625 C-1.71039069 29.10246506 -1.71039069 29.10246506 -3.08203125 27.4296875 C-5.77566701 25.42180422 -8.4388907 24.88079834 -11.6875 24.0625 C-25.4346769 20.29906831 -25.4346769 20.29906831 -29 15.0625 C-30.23188011 11.28986717 -30.71839 8.53819976 -29.00390625 4.8671875 C-21.66642431 -5.27404771 -10.42801997 -6.55151689 0 0 Z " fill="#749EAD" transform="translate(520,67)"/>
<path d="M0 0 C3.30176254 2.71629536 5.5135518 6.36388181 6.24467468 10.57566833 C6.35407887 12.76704401 6.34542223 14.92396156 6.28515625 17.1171875 C6.27949646 17.90634048 6.27383667 18.69549347 6.26800537 19.50856018 C6.24578811 22.00504749 6.19562344 24.5000475 6.14453125 26.99609375 C6.12444713 28.69854684 6.10619972 30.40102264 6.08984375 32.10351562 C6.04597197 36.25577289 5.97705033 40.40693203 5.89453125 44.55859375 C3.25453125 44.55859375 0.61453125 44.55859375 -2.10546875 44.55859375 C-2.12528809 43.54958008 -2.14510742 42.54056641 -2.16552734 41.50097656 C-2.24170211 37.75105179 -2.33040091 34.00150904 -2.42285156 30.25195312 C-2.46109233 28.63028516 -2.49595378 27.00853379 -2.52734375 25.38671875 C-2.57310132 23.05308258 -2.63107691 20.72001813 -2.69140625 18.38671875 C-2.70295746 17.6636554 -2.71450867 16.94059204 -2.72640991 16.19561768 C-2.83316581 12.53994495 -2.97361482 9.61005237 -5.10546875 6.55859375 C-8.16976651 5.02644487 -10.72203295 5.32920827 -14.10546875 5.55859375 C-17.76238557 7.22082867 -20.10726109 9.06173035 -22.10546875 12.55859375 C-22.93969777 16.65933822 -23.27711828 20.65476579 -23.421875 24.83203125 C-23.46376953 25.98574219 -23.50566406 27.13945313 -23.54882812 28.328125 C-23.58814453 29.51792969 -23.62746094 30.70773438 -23.66796875 31.93359375 C-23.73274414 33.75310547 -23.73274414 33.75310547 -23.79882812 35.609375 C-23.90452388 38.59234407 -24.00662196 41.57539117 -24.10546875 44.55859375 C-26.41546875 44.55859375 -28.72546875 44.55859375 -31.10546875 44.55859375 C-31.10546875 29.70859375 -31.10546875 14.85859375 -31.10546875 -0.44140625 C-28.79546875 -0.44140625 -26.48546875 -0.44140625 -24.10546875 -0.44140625 C-23.77546875 1.20859375 -23.44546875 2.85859375 -23.10546875 4.55859375 C-22.38359375 3.77484375 -21.66171875 2.99109375 -20.91796875 2.18359375 C-14.43081504 -3.87108305 -7.74222803 -3.54786417 0 0 Z " fill="#739DAC" transform="translate(847.10546875,65.44140625)"/>
<path d="M0 0 C2.64 0 5.28 0 8 0 C8.33 17.82 8.66 35.64 9 54 C19.23 54.33 29.46 54.66 40 55 C40 57.31 40 59.62 40 62 C26.8 62 13.6 62 0 62 C0 41.54 0 21.08 0 0 Z " fill="#719CAB" transform="translate(241,48)"/>
<path d="M0 0 C4.326625 2.85720519 6.40896404 5.12789432 8 10 C9.11651538 16.60905069 9.72199961 22.7782866 7 29 C4.6549762 31.89219602 2.4212789 33.58172438 -1 35 C-4.12468603 35.2145471 -6.98901808 34.85948839 -10 34 C-14.1236858 30.1935208 -15.83700727 25.94744562 -16.30078125 20.40625 C-16.30464844 19.1171875 -16.30851563 17.828125 -16.3125 16.5 C-16.32925781 15.2109375 -16.34601562 13.921875 -16.36328125 12.59375 C-15.86064387 7.62142325 -13.82821164 4.19017636 -10 1 C-6.34711807 -0.21762731 -3.84245864 -0.39075851 0 0 Z " fill="#FBFCFC" transform="translate(620,70)"/>
<path d="M0 0 C2.64 0 5.28 0 8 0 C8 3.96 8 7.92 8 12 C10.31 12 12.62 12 15 12 C15 14.31 15 16.62 15 19 C12.69 19 10.38 19 8 19 C8.33 29.56 8.66 40.12 9 51 C10.98 51.33 12.96 51.66 15 52 C15 53.98 15 55.96 15 58 C6.99915383 59.60365544 6.99915383 59.60365544 3 57.1875 C-0.46728734 53.39515448 -0.1322172 50.27807987 -0.09765625 45.3671875 C-0.0962413 44.61535187 -0.09482635 43.86351624 -0.09336853 43.08889771 C-0.08776465 40.6842249 -0.07521157 38.27964473 -0.0625 35.875 C-0.0574855 34.24609509 -0.0529225 32.61718873 -0.04882812 30.98828125 C-0.03779397 26.99215173 -0.02052679 22.99609158 0 19 C-1.98 19 -3.96 19 -6 19 C-6 17.02 -6 15.04 -6 13 C-4.02 13 -2.04 13 0 13 C0 8.71 0 4.42 0 0 Z " fill="#759EAD" transform="translate(866,52)"/>
<path d="M0 0 C2.31 0 4.62 0 7 0 C7 14.85 7 29.7 7 45 C4.69 45 2.38 45 0 45 C0 30.15 0 15.3 0 0 Z " fill="#719CAB" transform="translate(579,65)"/>
<path d="M0 0 C0.7807571 9.90694006 0.7807571 9.90694006 -2.1875 14.0625 C-7.58137335 17.77827942 -11.52705978 18.6164705 -18 18 C-20.5 16.5 -20.5 16.5 -22 14 C-22.31584913 11.24158426 -22.1862657 8.79398546 -22 6 C-17.50379844 3.50366414 -13.21205163 2.20956629 -8.1875 1.3125 C-7.50751953 1.18294922 -6.82753906 1.05339844 -6.12695312 0.91992188 C-1.24503968 0 -1.24503968 0 0 0 Z " fill="#FAFCFC" transform="translate(471,87)"/>
<path d="M0 0 C0 0.66 0 1.32 0 2 C1.32 2.66 2.64 3.32 4 4 C4.66 6.97 5.32 9.94 6 13 C-2.25 13 -10.5 13 -19 13 C-19 7 -19 7 -16.75 3.75 C-11.66265719 -1.33734281 -7.03444395 -2.34481465 0 0 Z " fill="#F8FAFB" transform="translate(793,71)"/>
<path d="M0 0 C1.51815699 0.00015911 3.0363194 0.00585313 4.55444336 0.01586914 C5.35208603 0.01728409 6.1497287 0.01869904 6.97154236 0.02015686 C9.52916146 0.02577223 12.08669429 0.03832727 14.64428711 0.05102539 C16.37410356 0.05603841 18.10392137 0.06060166 19.83374023 0.06469727 C24.08312264 0.07574664 28.33244023 0.09302153 32.58178711 0.11352539 C33.9322675 2.81448616 33.71142288 4.94079056 33.71459961 7.96118164 C33.7165332 9.70431641 33.7165332 9.70431641 33.71850586 11.48266602 C33.71463867 12.70147461 33.71077148 13.9202832 33.70678711 15.17602539 C33.71258789 17.01003906 33.71258789 17.01003906 33.71850586 18.88110352 C33.7172168 20.0419043 33.71592773 21.20270508 33.71459961 22.39868164 C33.71347168 23.46997314 33.71234375 24.54126465 33.71118164 25.64501953 C33.58178711 28.11352539 33.58178711 28.11352539 32.58178711 29.11352539 C29.92722518 29.21448103 27.29923535 29.25323538 24.64428711 29.24633789 C23.45138062 29.24777298 23.45138062 29.24777298 22.234375 29.24923706 C20.5497225 29.24991882 18.8650674 29.24806482 17.18041992 29.24389648 C14.59279514 29.23854814 12.00534395 29.24384158 9.41772461 29.25024414 C7.78491172 29.24958336 6.15209895 29.24830219 4.51928711 29.24633789 C3.74012939 29.24836212 2.96097168 29.25038635 2.15820312 29.25247192 C-3.30326185 29.22847644 -3.30326185 29.22847644 -4.41821289 28.11352539 C-4.51804347 26.12595511 -4.54902042 24.1348502 -4.55102539 22.14477539 C-4.55231445 20.9343457 -4.55360352 19.72391602 -4.55493164 18.47680664 C-4.55106445 17.20192383 -4.54719727 15.92704102 -4.54321289 14.61352539 C-4.54708008 13.33864258 -4.55094727 12.06375977 -4.55493164 10.75024414 C-4.55364258 9.53981445 -4.55235352 8.32938477 -4.55102539 7.08227539 C-4.54989746 5.96272461 -4.54876953 4.84317383 -4.54760742 3.68969727 C-4.35036119 -0.23736362 -4.0550513 0.13467601 0 0 Z M-2.41821289 2.11352539 C-2.50558934 3.9672215 -2.52519442 5.8242008 -2.51586914 7.67993164 C-2.51337158 8.6925708 -2.51087402 9.70520996 -2.50830078 10.74853516 C-2.49919678 12.04460693 -2.49009277 13.34067871 -2.48071289 14.67602539 C-2.46008789 18.78040039 -2.43946289 22.88477539 -2.41821289 27.11352539 C8.80178711 27.11352539 20.02178711 27.11352539 31.58178711 27.11352539 C31.58178711 18.86352539 31.58178711 10.61352539 31.58178711 2.11352539 C28.61928623 0.63227495 25.94265816 0.98361855 22.64038086 0.98071289 C21.95750504 0.97975616 21.27462921 0.97879944 20.57106018 0.97781372 C19.12777616 0.97713316 17.68448908 0.9789788 16.24121094 0.9831543 C14.02458883 0.98851257 11.80816859 0.98320096 9.59155273 0.97680664 C8.19116166 0.97746728 6.79077071 0.97874816 5.39038086 0.98071289 C4.1096167 0.98184082 2.82885254 0.98296875 1.50927734 0.98413086 C-1.30834037 0.77858835 -1.30834037 0.77858835 -2.41821289 2.11352539 Z " fill="#FDFEFE" transform="translate(95.418212890625,95.886474609375)"/>
<path d="M0 0 C1.9375 0.75 1.9375 0.75 3.9375 2.75 C4.03675781 3.52472656 4.13601562 4.29945313 4.23828125 5.09765625 C5.21373487 8.79784065 7.1069847 9.90260583 10.125 12.1875 C13.36673042 14.70791395 16.48259243 17.14654085 19.3125 20.125 C21.732878 22.545378 23.92782688 24.15664364 26.9375 25.75 C26.4425 28.225 26.4425 28.225 25.9375 30.75 C23.08560724 30.4056388 21.3802399 30.15719885 19.234375 28.18359375 C18.72390625 27.52488281 18.2134375 26.86617187 17.6875 26.1875 C14.40445102 22.1756863 10.80306677 18.86140175 6.85546875 15.51171875 C4.9375 13.75 4.9375 13.75 2.9375 10.75 C1.7825 10.42 0.6275 10.09 -0.5625 9.75 C-4.0625 8.75 -4.0625 8.75 -6.0625 5.75 C-5.875 3.6875 -5.875 3.6875 -5.0625 1.75 C-2.0625 -0.25 -2.0625 -0.25 0 0 Z " fill="#89C9BF" transform="translate(150.0625,144.25)"/>
<path d="M0 0 C8 0 8 0 10.5 1.125 C12 3 12 3 12.4375 6 C12 9 12 9 10.625 10.875 C9 12 9 12 7 12 C8.65 15.3 10.3 18.6 12 22 C8 21 8 21 6.8046875 19.40625 C6.49789063 18.7771875 6.19109375 18.148125 5.875 17.5 C4.41591483 13.96744249 4.41591483 13.96744249 2 13 C2 15.97 2 18.94 2 22 C1.34 22 0.68 22 0 22 C0 14.74 0 7.48 0 0 Z " fill="#769FAE" transform="translate(408,153)"/>
<path d="M0 0 C3 1 3 1 4.07495117 2.71826172 C4.39439697 3.44803223 4.71384277 4.17780273 5.04296875 4.9296875 C5.39423828 5.72503906 5.74550781 6.52039063 6.10742188 7.33984375 C6.64206055 8.59474609 6.64206055 8.59474609 7.1875 9.875 C7.55552734 10.70386719 7.92355469 11.53273437 8.30273438 12.38671875 C11 18.58192254 11 18.58192254 11 22 C10.01 21.67 9.02 21.34 8 21 C7.71382813 20.33484375 7.42765625 19.6696875 7.1328125 18.984375 C6.75898438 18.32953125 6.38515625 17.6746875 6 17 C3.58320293 16.29823412 3.58320293 16.29823412 0.875 16.25 C-0.03507812 16.19328125 -0.94515625 16.1365625 -1.8828125 16.078125 C-2.93082031 16.03945312 -2.93082031 16.03945312 -4 16 C-4.4021875 17.2065625 -4.4021875 17.2065625 -4.8125 18.4375 C-5.204375 19.283125 -5.59625 20.12875 -6 21 C-6.99 21.33 -7.98 21.66 -9 22 C-7.00878667 14.10501383 -3.81085857 7.17773362 0 0 Z " fill="#7DA4B2" transform="translate(376,153)"/>
<path d="M0 0 C1.875 0.8125 1.875 0.8125 3.875 2.8125 C6.58422801 3.01102102 9.16803179 3.09089477 11.875 3.0625 C12.61234375 3.07023437 13.3496875 3.07796875 14.109375 3.0859375 C18.45921903 3.22258865 18.45921903 3.22258865 21.875 0.8125 C23.195 0.8125 24.515 0.8125 25.875 0.8125 C26.535 2.4625 27.195 4.1125 27.875 5.8125 C26.625 7.375 26.625 7.375 24.875 8.8125 C23.01806641 8.42871094 23.01806641 8.42871094 20.875 7.8125 C18.00836119 7.44684649 15.13253346 7.26079509 12.25 7.0625 C11.47398437 6.99417969 10.69796875 6.92585938 9.8984375 6.85546875 C7.39640517 6.64973236 7.39640517 6.64973236 3.875 6.8125 C2.885 8.2975 2.885 8.2975 1.875 9.8125 C-0.435 9.4825 -2.745 9.1525 -5.125 8.8125 C-5.455 6.8325 -5.785 4.8525 -6.125 2.8125 C-2.70744111 -0.23889186 -2.70744111 -0.23889186 0 0 Z " fill="#8CCAC1" transform="translate(157.125,105.1875)"/>
<path d="M0 0 C2.5625 1.375 2.5625 1.375 4 3 C4 3.66 4 4.32 4 5 C3.15115234 4.76023438 3.15115234 4.76023438 2.28515625 4.515625 C-0.05284773 3.98807538 -2.16832549 3.79861268 -4.5625 3.75 C-5.32691406 3.72421875 -6.09132813 3.6984375 -6.87890625 3.671875 C-9.05429961 3.85418158 -9.05429961 3.85418158 -10.765625 5.19140625 C-12.43014374 7.63024225 -12.30141405 9.26370594 -12.1875 12.1875 C-12.16042969 13.08855469 -12.13335938 13.98960937 -12.10546875 14.91796875 C-12.07066406 15.60503906 -12.03585937 16.29210937 -12 17 C-10.56496445 17.36402369 -9.12683494 17.71586591 -7.6875 18.0625 C-6.88699219 18.25972656 -6.08648438 18.45695312 -5.26171875 18.66015625 C-2.84042821 19.19885554 -2.84042821 19.19885554 0 18 C0.33 16.02 0.66 14.04 1 12 C-1.31 12 -3.62 12 -6 12 C-6 11.34 -6 10.68 -6 10 C-2.7 10 0.6 10 4 10 C4.390625 16.73828125 4.390625 16.73828125 4 19 C1.91400801 21.16254215 0.52156429 21.90722174 -2.4375 22.43359375 C-9.34204597 22.44411897 -9.34204597 22.44411897 -12.5 20.3125 C-15.35954403 15.90403629 -16.66325562 12.30604493 -16 7 C-11.6698121 0.43005974 -7.51805041 -0.9092227 0 0 Z " fill="#83A8B6" transform="translate(557,153)"/>
<path d="M0 0 C4.91363163 4.33555732 7.74579488 9.32406083 11 15 C11.33 10.05 11.66 5.1 12 0 C12.66 0 13.32 0 14 0 C14 7.26 14 14.52 14 22 C9.75574225 19.87787112 9.01904304 18.94217579 6.75 15 C6.22921875 14.113125 5.7084375 13.22625 5.171875 12.3125 C4 10 4 10 4 8 C3.34 8 2.68 8 2 8 C2 12.62 2 17.24 2 22 C1.01 22 0.02 22 -1 22 C-1.02887814 18.52085059 -1.04675687 15.04173169 -1.0625 11.5625 C-1.07087891 10.56927734 -1.07925781 9.57605469 -1.08789062 8.55273438 C-1.09111328 7.60849609 -1.09433594 6.66425781 -1.09765625 5.69140625 C-1.10289307 4.81685791 -1.10812988 3.94230957 -1.11352539 3.04125977 C-1 1 -1 1 0 0 Z " fill="#7DA4B2" transform="translate(442,153)"/>
<path d="M0 0 C3.93423016 1.31141005 4.50454132 2.99898737 6.625 6.5 C8.56639726 9.93547657 8.56639726 9.93547657 11 13 C11.33 9.04 11.66 5.08 12 1 C12.99 0.67 13.98 0.34 15 0 C15 7.26 15 14.52 15 22 C14.01 22 13.02 22 12 22 C10.29305123 19.52359763 8.78629988 17.1091194 7.3125 14.5 C6.68891602 13.42685547 6.68891602 13.42685547 6.05273438 12.33203125 C5.025202 10.56042371 4.01130764 8.78091912 3 7 C2.67 11.95 2.34 16.9 2 22 C1.34 22 0.68 22 0 22 C0 14.74 0 7.48 0 0 Z " fill="#7CA3B1" transform="translate(504,153)"/>
<path d="M0 0 C10.89 0 21.78 0 33 0 C33 1.98 33 3.96 33 6 C32.2575 6.0825 31.515 6.165 30.75 6.25 C27.86876531 6.78493252 27.86876531 6.78493252 26 9.0625 C24 11 24 11 21.375 11.375 C19 11 19 11 17 9 C16.875 5.875 16.875 5.875 17 3 C17.66 2.67 18.32 2.34 19 2 C12.73 1.67 6.46 1.34 0 1 C0 0.67 0 0.34 0 0 Z " fill="#A4D5CE" transform="translate(44,104)"/>
<path d="M0 0 C0.33 0 0.66 0 1 0 C1.268125 1.093125 1.53625 2.18625 1.8125 3.3125 C2.65459982 6.92379487 2.65459982 6.92379487 4.6875 8.625 C5.120625 9.07875 5.55375 9.5325 6 10 C5.6875 12.6875 5.6875 12.6875 5 15 C4.01 15.33 3.02 15.66 2 16 C2 21.61 2 27.22 2 33 C0.68 33 -0.64 33 -2 33 C-1.98259766 31.06833984 -1.98259766 31.06833984 -1.96484375 29.09765625 C-1.9554673 27.41927228 -1.94636695 25.74088674 -1.9375 24.0625 C-1.92912109 23.21236328 -1.92074219 22.36222656 -1.91210938 21.48632812 C-1.90888672 20.67744141 -1.90566406 19.86855469 -1.90234375 19.03515625 C-1.89710693 18.2862915 -1.89187012 17.53742676 -1.88647461 16.76586914 C-1.80658248 14.97332261 -1.80658248 14.97332261 -3 14 C-3.04063832 12.33382885 -3.042721 10.66611905 -3 9 C-2.34 8.67 -1.68 8.34 -1 8 C-0.53476937 6.10466658 -0.53476937 6.10466658 -0.375 3.9375 C-0.25125 2.638125 -0.1275 1.33875 0 0 Z " fill="#A1D3CC" transform="translate(96,138)"/>
<path d="M0 0 C2.3125 0.125 2.3125 0.125 5 1 C6 3 7 5 8 7 C10.29621338 9.44819888 12.68865878 11.75108671 15.13671875 14.046875 C17 16 17 16 17 18 C17.66 18 18.32 18 19 18 C19.33 19.98 19.66 21.96 20 24 C18.34385343 24.38218767 16.67542976 24.71395102 15 25 C14.67 24.67 14.34 24.34 14 24 C14.08636719 23.27039063 14.17273438 22.54078125 14.26171875 21.7890625 C13.88777559 17.80405633 11.60003373 15.98003794 8.8125 13.375 C8.32974609 12.89804687 7.84699219 12.42109375 7.34960938 11.9296875 C4.45306456 9.13034218 1.53430755 6.92545457 -2 5 C-1.34 3.35 -0.68 1.7 0 0 Z " fill="#85C7BD" transform="translate(45,50)"/>
<path d="M0 0 C0.33 0 0.66 0 1 0 C1.268125 1.093125 1.53625 2.18625 1.8125 3.3125 C2.65459982 6.92379487 2.65459982 6.92379487 4.6875 8.625 C5.120625 9.07875 5.55375 9.5325 6 10 C5.68107335 11.66948336 5.34292778 13.33528098 5 15 C4.73155592 18.09993301 4.58711964 21.2048265 4.4375 24.3125 C4.39431641 25.14845703 4.35113281 25.98441406 4.30664062 26.84570312 C4.20114693 28.89696935 4.10012685 30.9484648 4 33 C2.68 33 1.36 33 0 33 C0.03480469 31.79601562 0.06960937 30.59203125 0.10546875 29.3515625 C0.1336028 27.77605558 0.16090337 26.20053362 0.1875 24.625 C0.21263672 23.8309375 0.23777344 23.036875 0.26367188 22.21875 C0.29004405 20.14413852 0.15486462 18.06899135 0 16 C-0.99 15.34 -1.98 14.68 -3 14 C-2.125 9.125 -2.125 9.125 -1 8 C-0.76924918 6.65252916 -0.58846937 5.29622435 -0.4375 3.9375 C-0.2209375 1.9884375 -0.2209375 1.9884375 0 0 Z " fill="#97CFC7" transform="translate(121,138)"/>
<path d="M0 0 C1.32 0 2.64 0 4 0 C3.97679688 1.20398437 3.95359375 2.40796875 3.9296875 3.6484375 C3.91093137 5.22395215 3.89273101 6.79947348 3.875 8.375 C3.85824219 9.1690625 3.84148437 9.963125 3.82421875 10.78125 C3.80664527 12.85492015 3.89664832 14.92883241 4 17 C4.66 17.66 5.32 18.32 6 19 C5.44444444 23.55555556 5.44444444 23.55555556 4 25 C1.66055264 24.71269945 -0.6739143 24.38063221 -3 24 C-3.125 21.625 -3.125 21.625 -3 19 C-2.34 18.34 -1.68 17.68 -1 17 C-0.69324768 14.10032243 -0.48826629 11.28216822 -0.375 8.375 C-0.33632812 7.57320312 -0.29765625 6.77140625 -0.2578125 5.9453125 C-0.16346069 3.96392444 -0.08063785 1.98199355 0 0 Z " fill="#98D0C7" transform="translate(121,52)"/>
<path d="M0 0 C0 0.99 0 1.98 0 3 C-0.99 3.556875 -0.99 3.556875 -2 4.125 C-4.21342165 5.79803653 -4.21342165 5.79803653 -4.265625 8.19140625 C-4.2514077 10.46261949 -4.13144643 12.73254911 -4 15 C-0.7 15.66 2.6 16.32 6 17 C6 16.34 6 15.68 6 15 C6.66 14.67 7.32 14.34 8 14 C9.10135489 10.71307604 9.10135489 10.71307604 9 7 C6.666508 4.16588845 6.666508 4.16588845 4 2 C4 1.34 4 0.68 4 0 C6.88949684 0.31237804 8.58633099 0.64338879 10.8125 2.5625 C12.51156424 6.05005291 12.64123432 9.24206866 12 13 C10.5625 15.9375 10.5625 15.9375 8 18 C4.15519879 19.07231153 0.63203489 19.59694249 -3.16796875 18.20703125 C-6.27251407 16.16160587 -6.90841711 13.44710387 -8 10 C-8 6.8125 -8 6.8125 -7 4 C-2.89473684 0 -2.89473684 0 0 0 Z " fill="#F3F9F8" transform="translate(108,101)"/>
<path d="M0 0 C0.99 0 1.98 0 3 0 C3 5.61 3 11.22 3 17 C4.32 17.66 5.64 18.32 7 19 C6.125 23.875 6.125 23.875 5 25 C2.5625 25.1875 2.5625 25.1875 0 25 C-0.66 24.34 -1.32 23.68 -2 23 C-1.72109532 21.32336615 -1.37033487 19.65883724 -1 18 C-0.72730037 14.90048296 -0.58711708 11.79512043 -0.4375 8.6875 C-0.39431641 7.85154297 -0.35113281 7.01558594 -0.30664062 6.15429688 C-0.20114693 4.10303065 -0.10012685 2.0515352 0 0 Z " fill="#8FCBC3" transform="translate(95,52)"/>
<path d="M0 0 C3.96 0 7.92 0 12 0 C12 0.66 12 1.32 12 2 C8.7 2 5.4 2 2 2 C2.33 4.31 2.66 6.62 3 9 C5.64 9.33 8.28 9.66 11 10 C10.67 10.66 10.34 11.32 10 12 C7.36 12 4.72 12 2 12 C2 14.64 2 17.28 2 20 C5.3 20 8.6 20 12 20 C12 20.66 12 21.32 12 22 C8.04 22 4.08 22 0 22 C0 14.74 0 7.48 0 0 Z " fill="#719CAB" transform="translate(241,153)"/>
<path d="M0 0 C3.96 0 7.92 0 12 0 C12 0.66 12 1.32 12 2 C8.7 2 5.4 2 2 2 C2 4.64 2 7.28 2 10 C4.97 10 7.94 10 11 10 C10.67 10.66 10.34 11.32 10 12 C7.36 12 4.72 12 2 12 C2 14.64 2 17.28 2 20 C5.3 20 8.6 20 12 20 C12 20.66 12 21.32 12 22 C8.04 22 4.08 22 0 22 C0 14.74 0 7.48 0 0 Z " fill="#719CAB" transform="translate(336,153)"/>
<path d="M0 0 C1.65 0 3.3 0 5 0 C5.33 0.66 5.66 1.32 6 2 C8.54941373 2.31241371 11.00361513 2.51303421 13.5625 2.625 C14.62887695 2.68300781 14.62887695 2.68300781 15.71679688 2.7421875 C17.47742425 2.83671783 19.23867728 2.91945817 21 3 C20.67 3.99 20.34 4.98 20 6 C18.96359375 6.06058594 17.9271875 6.12117188 16.859375 6.18359375 C15.48957127 6.26803371 14.11978025 6.35267997 12.75 6.4375 C11.72712891 6.49647461 11.72712891 6.49647461 10.68359375 6.55664062 C7.91716644 6.73122099 5.31728668 6.91122277 2.640625 7.66015625 C2.09921875 7.77230469 1.5578125 7.88445312 1 8 C0.34 7.34 -0.32 6.68 -1 6 C-0.625 2.875 -0.625 2.875 0 0 Z " fill="#8BCAC1" transform="translate(39,106)"/>
<path d="M0 0 C0.99 0.495 0.99 0.495 2 1 C2 9.25 2 17.5 2 26 C12.89 26 23.78 26 35 26 C35 26.33 35 26.66 35 27 C30.176384 27.167247 25.35261089 27.32784308 20.52856445 27.48217773 C18.88625066 27.53566959 17.24399584 27.59100431 15.60180664 27.64819336 C13.24638594 27.72990479 10.89083518 27.80506639 8.53515625 27.87890625 C7.79660904 27.90594131 7.05806183 27.93297638 6.2971344 27.96083069 C4.53214384 28.0129438 2.7657199 28.0118612 1 28 C0 27 0 27 -0.11352539 24.40795898 C-0.10828857 23.28204346 -0.10305176 22.15612793 -0.09765625 20.99609375 C-0.09443359 19.78115234 -0.09121094 18.56621094 -0.08789062 17.31445312 C-0.07951172 16.03505859 -0.07113281 14.75566406 -0.0625 13.4375 C-0.05798828 12.15423828 -0.05347656 10.87097656 -0.04882812 9.54882812 C-0.03699545 6.36583978 -0.02051068 3.18294238 0 0 Z " fill="#DDEFED" transform="translate(91,97)"/>
<path d="M0 0 C2.15737969 0.9743005 3.39293876 2.09875457 4.9375 3.875 C3.0625 8.75 3.0625 8.75 1.9375 9.875 C-0.40194736 9.58769945 -2.7364143 9.25563221 -5.0625 8.875 C-5.3925 6.895 -5.7225 4.915 -6.0625 2.875 C-2.66181896 -0.16132236 -2.66181896 -0.16132236 0 0 Z " fill="#8ECBC2" transform="translate(157.0625,105.125)"/>
<path d="M0 0 C7.26 0.33 14.52 0.66 22 1 C21.67 1.66 21.34 2.32 21 3 C20.34 3 19.68 3 19 3 C19 4.65 19 6.3 19 8 C18.34 7.67 17.68 7.34 17 7 C17.33 6.34 17.66 5.68 18 5 C16.95199219 5.05800781 15.90398438 5.11601563 14.82421875 5.17578125 C13.445357 5.22268131 12.06644713 5.26818122 10.6875 5.3125 C9.65206055 5.3753418 9.65206055 5.3753418 8.59570312 5.43945312 C6.57421875 5.48828125 6.57421875 5.48828125 3 5 C2.01 3.35 1.02 1.7 0 0 Z " fill="#F4F9F9" transform="translate(42,104)"/>
<path d="M0 0 C1.46067199 0.45082469 2.91848032 0.91093537 4.375 1.375 C5.18710938 1.63023438 5.99921875 1.88546875 6.8359375 2.1484375 C9 3 9 3 11 5 C10.64644564 7.26274788 10.02455574 8.95088852 9 11 C6.625 11.1875 6.625 11.1875 4 11 C1.54176828 7.31265242 0.98757384 4.30300029 0 0 Z " fill="#89C9C0" transform="translate(65,75)"/>
<path d="M0 0 C2.0625 0.4375 2.0625 0.4375 4 1 C4.38218767 2.65614657 4.71395102 4.32457024 5 6 C4.67 6.33 4.34 6.66 4 7 C3.8415735 9.0708472 3.74875578 11.14678029 3.68359375 13.22265625 C3.64169922 14.48271484 3.59980469 15.74277344 3.55664062 17.04101562 C3.51682404 18.38150736 3.47711186 19.7220022 3.4375 21.0625 C3.39431958 22.40691523 3.35070544 23.7513166 3.30664062 25.09570312 C3.20014642 28.3970234 3.0981354 31.69842236 3 35 C2.67 35 2.34 35 2 35 C1.98541748 34.19780029 1.97083496 33.39560059 1.95581055 32.5690918 C1.88143281 28.94140301 1.78473757 25.31464496 1.6875 21.6875 C1.66494141 20.42486328 1.64238281 19.16222656 1.61914062 17.86132812 C1.58369141 16.65283203 1.54824219 15.44433594 1.51171875 14.19921875 C1.48553467 13.08377686 1.45935059 11.96833496 1.43237305 10.8190918 C0.95270077 7.69160691 0.32493091 6.99352372 -2 5 C-1.74853421 2.86254078 -1.54074221 1.54074221 0 0 Z " fill="#90CCC3" transform="translate(104,49)"/>
<path d="M0 0 C1.65 0 3.3 0 5 0 C5 2.64 5 5.28 5 8 C3.68 8.33 2.36 8.66 1 9 C1 16.92 1 24.84 1 33 C0.67 33 0.34 33 0 33 C0 22.11 0 11.22 0 0 Z " fill="#EEF7F5" transform="translate(91,138)"/>
<path d="M0 0 C3.0625 0.1875 3.0625 0.1875 5.0625 2.1875 C4.73278521 5.48464793 4.4398161 6.8101839 2.0625 9.1875 C-2.49305556 8.63194444 -2.49305556 8.63194444 -3.9375 7.1875 C-4.0625 4.1875 -4.0625 4.1875 -3.9375 1.1875 C-2.9375 0.1875 -2.9375 0.1875 0 0 Z " fill="#88C8BF" transform="translate(27.9375,114.8125)"/>
<path d="M0 0 C4.55555556 0.55555556 4.55555556 0.55555556 6 2 C6.125 5 6.125 5 6 8 C5 9 5 9 2.0625 9.1875 C-1 9 -1 9 -3 7 C-2.67028521 3.70285207 -2.3773161 2.3773161 0 0 Z " fill="#8BCAC1" transform="translate(187,99)"/>
<path d="M0 0 C1.32 0.33 2.64 0.66 4 1 C4.38218767 2.65614657 4.71395102 4.32457024 5 6 C4.67 6.33 4.34 6.66 4 7 C3.8415735 9.0708472 3.74875578 11.14678029 3.68359375 13.22265625 C3.64169922 14.48271484 3.59980469 15.74277344 3.55664062 17.04101562 C3.51682404 18.38150736 3.47711186 19.7220022 3.4375 21.0625 C3.39431958 22.40691523 3.35070544 23.7513166 3.30664062 25.09570312 C3.20014642 28.3970234 3.0981354 31.69842236 3 35 C2.67 35 2.34 35 2 35 C1.98541748 34.19780029 1.97083496 33.39560059 1.95581055 32.5690918 C1.88143281 28.94140301 1.78473757 25.31464496 1.6875 21.6875 C1.66494141 20.42486328 1.64238281 19.16222656 1.61914062 17.86132812 C1.58369141 16.65283203 1.54824219 15.44433594 1.51171875 14.19921875 C1.48553467 13.08377686 1.45935059 11.96833496 1.43237305 10.8190918 C0.96359101 7.76261175 0.42182734 6.83540117 -2 5 C-1.34 3.35 -0.68 1.7 0 0 Z " fill="#91CCC4" transform="translate(112,49)"/>
<path d="M0 0 C0.33 0 0.66 0 1 0 C1.02505615 0.85231201 1.0501123 1.70462402 1.07592773 2.58276367 C1.17135569 5.76044966 1.27057124 8.93798894 1.37231445 12.11547852 C1.4154884 13.48782776 1.45717501 14.86022467 1.49731445 16.23266602 C1.55544392 18.21122068 1.6194571 20.1895997 1.68359375 22.16796875 C1.72025146 23.35672607 1.75690918 24.5454834 1.79467773 25.77026367 C1.92346568 28.95763265 1.92346568 28.95763265 2.58227539 31.86450195 C2.72012451 32.56921631 2.85797363 33.27393066 3 34 C2 35 2 35 -0.5625 35.0625 C-1.366875 35.041875 -2.17125 35.02125 -3 35 C-3.33 33.35 -3.66 31.7 -4 30 C-3.01 29.34 -2.02 28.68 -1 28 C-0.48853802 25.09386566 -0.48853802 25.09386566 -0.48828125 21.6796875 C-0.45283203 20.42285156 -0.41738281 19.16601562 -0.38085938 17.87109375 C-0.35830078 16.55238281 -0.33574219 15.23367187 -0.3125 13.875 C-0.27933471 12.53512241 -0.24484578 11.19527689 -0.20898438 9.85546875 C-0.12626673 6.5703967 -0.05719307 3.28559968 0 0 Z " fill="#91CCC3" transform="translate(106,138)"/>
<path d="M0 0 C1.32 0 2.64 0 4 0 C4 5.28 4 10.56 4 16 C2.68 16 1.36 16 0 16 C0 10.72 0 5.44 0 0 Z " fill="#86C7BE" transform="translate(121,155)"/>
<path d="M0 0 C2.61580479 0.3269756 4.64078137 0.82039068 7 2 C6.67 3.98 6.34 5.96 6 8 C3.125 8.625 3.125 8.625 0 9 C-2 7 -2 7 -2.25 4.5 C-2 2 -2 2 0 0 Z " fill="#F7FBFA" transform="translate(108,106)"/>
<path d="M0 0 C0.66 0 1.32 0 2 0 C2 6.6 2 13.2 2 20 C4.31 20 6.62 20 9 20 C9 20.66 9 21.32 9 22 C6.03 22 3.06 22 0 22 C0 14.74 0 7.48 0 0 Z " fill="#719CAB" transform="translate(306,153)"/>
<path d="M0 0 C0.928125 0.061875 1.85625 0.12375 2.8125 0.1875 C2.8125 1.8375 2.8125 3.4875 2.8125 5.1875 C-6.4275 5.1875 -15.6675 5.1875 -25.1875 5.1875 C-25.1875 4.8575 -25.1875 4.5275 -25.1875 4.1875 C-24.62764404 4.17291748 -24.06778809 4.15833496 -23.4909668 4.14331055 C-20.95161863 4.06878648 -18.41357922 3.97214419 -15.875 3.875 C-14.99392578 3.85244141 -14.11285156 3.82988281 -13.20507812 3.80664062 C-12.35751953 3.77119141 -11.50996094 3.73574219 -10.63671875 3.69921875 C-9.85643311 3.67303467 -9.07614746 3.64685059 -8.2722168 3.61987305 C-4.4670037 2.83066677 -4.18720517 0.24630619 0 0 Z " fill="#D9EDEA" transform="translate(74.1875,110.8125)"/>
<path d="M0 0 C2.875 -0.1875 2.875 -0.1875 6 0 C8 3 8 3 7.6875 5.125 C7 7 7 7 6 8 C4.00041636 8.04080783 1.99954746 8.04254356 0 8 C0 5.36 0 2.72 0 0 Z " fill="#F0F5F6" transform="translate(410,155)"/>
<path d="M0 0 C2.31 0 4.62 0 7 0 C7 2.64 7 5.28 7 8 C4.69 8 2.38 8 0 8 C0 5.36 0 2.72 0 0 Z " fill="#719CAB" transform="translate(579,48)"/>
<path d="M0 0 C1.67542976 0.28604898 3.34385343 0.61781233 5 1 C5.59732819 3.76264289 6 6.16032769 6 9 C3.6875 9.25 3.6875 9.25 1 9 C-0.875 7.25 -0.875 7.25 -2 5 C-1.75203633 2.83031791 -1.55766393 1.55766393 0 0 Z " fill="#9CD1C9" transform="translate(146,145)"/>
<path d="M0 0 C0.99 0 1.98 0 3 0 C3 5.28 3 10.56 3 16 C2.01 16 1.02 16 0 16 C0 10.72 0 5.44 0 0 Z " fill="#7EC4BA" transform="translate(95,155)"/>
<path d="M0 0 C0.99 0 1.98 0 3 0 C3 5.28 3 10.56 3 16 C2.01 16 1.02 16 0 16 C0 10.72 0 5.44 0 0 Z " fill="#7EC4BA" transform="translate(122,52)"/>
<path d="M0 0 C0.99 0 1.98 0 3 0 C3 5.28 3 10.56 3 16 C2.01 16 1.02 16 0 16 C0 10.72 0 5.44 0 0 Z " fill="#7EC4BA" transform="translate(95,52)"/>
<path d="M0 0 C0.66 0 1.32 0 2 0 C2.99 2.97 3.98 5.94 5 9 C2.36 9 -0.28 9 -3 9 C-2.01 6.03 -1.02 3.06 0 0 Z " fill="#EDF2F4" transform="translate(376,158)"/>
<path d="M0 0 C1.67542976 0.28604898 3.34385343 0.61781233 5 1 C5 2.65 5 4.3 5 6 C3.1875 6.625 3.1875 6.625 1 7 C0.01 6.34 -0.98 5.68 -2 5 C-1.125 1.125 -1.125 1.125 0 0 Z " fill="#A1D4CC" transform="translate(27,98)"/>
<path d="M0 0 C2.97 0 5.94 0 9 0 C9 1.65 9 3.3 9 5 C6.1875 5.3125 6.1875 5.3125 3 5 C1.125 2.5 1.125 2.5 0 0 Z " fill="#F0F8F7" transform="translate(68,105)"/>
<path d="M0 0 C0 1.65 0 3.3 0 5 C-1.65 5 -3.3 5 -5 5 C-5.33 3.35 -5.66 1.7 -6 0 C-3.50907189 -1.24546405 -2.58919267 -0.7767578 0 0 Z " fill="#F3F9F9" transform="translate(159,108)"/>
<path d="M0 0 C1.32 0 2.64 0 4 0 C4.38218767 1.65614657 4.71395102 3.32457024 5 5 C4 6 4 6 1.4375 6.0625 C0.2309375 6.0315625 0.2309375 6.0315625 -1 6 C-1.042721 4.33388095 -1.04063832 2.66617115 -1 1 C-0.67 0.67 -0.34 0.34 0 0 Z " fill="#F3F9F9" transform="translate(64,107)"/>
<path d="M0 0 C3.15140423 0.34069235 4.60781561 0.58076841 6.8125 2.9375 C8 5 8 5 8 7 C5 7 5 7 2.3125 4.625 C0 2 0 2 0 0 Z " fill="#ECF6F4" transform="translate(112,101)"/>
<path d="M0 0 C1.65 0 3.3 0 5 0 C4.67 1.65 4.34 3.3 4 5 C2.35 4.67 0.7 4.34 -1 4 C-0.67 2.68 -0.34 1.36 0 0 Z " fill="#A5D6CF" transform="translate(60,70)"/>
<path d="M0 0 C3.06393013 -0.25532751 4.63233212 -0.21861333 7.3125 1.375 C7.869375 1.91125 8.42625 2.4475 9 3 C9 3.66 9 4.32 9 5 C5.58978257 4.21302675 2.31114834 3.12880057 -1 2 C-0.67 1.34 -0.34 0.68 0 0 Z " fill="#81A7B4" transform="translate(552,153)"/>
<path d="M0 0 C1.98 0.495 1.98 0.495 4 1 C4 2.32 4 3.64 4 5 C2.35 5 0.7 5 -1 5 C-0.67 3.35 -0.34 1.7 0 0 Z " fill="#F0F8F7" transform="translate(96,147)"/>
<path d="M0 0 C0.99 0 1.98 0 3 0 C3.33 1.65 3.66 3.3 4 5 C2.35 5 0.7 5 -1 5 C-0.67 3.35 -0.34 1.7 0 0 Z " fill="#F1F8F7" transform="translate(121,147)"/>
<path d="M0 0 C1.98 0.495 1.98 0.495 4 1 C3.67 2.32 3.34 3.64 3 5 C1.68 4.67 0.36 4.34 -1 4 C-0.67 2.68 -0.34 1.36 0 0 Z " fill="#F2F9F8" transform="translate(121,70)"/>
<path d="M0 0 C2.475 0.495 2.475 0.495 5 1 C5 1.99 5 2.98 5 4 C3.35 4 1.7 4 0 4 C0 2.68 0 1.36 0 0 Z " fill="#F4FAF9" transform="translate(147,147)"/>
<path d="M0 0 C1.65 0.33 3.3 0.66 5 1 C5 1.99 5 2.98 5 4 C2.69 4 0.38 4 -2 4 C-1.34 2.68 -0.68 1.36 0 0 Z " fill="#FFFFFF" transform="translate(71,111)"/>
<path d="M0 0 C1.32 0.66 2.64 1.32 4 2 C3.67 2.99 3.34 3.98 3 5 C1.68 4.67 0.36 4.34 -1 4 C-0.67 2.68 -0.34 1.36 0 0 Z " fill="#F8FBFB" transform="translate(96,70)"/>
<path d="M0 0 C1.65 0 3.3 0 5 0 C5 0.99 5 1.98 5 3 C3.68 3.33 2.36 3.66 1 4 C0.67 2.68 0.34 1.36 0 0 Z " fill="#98D0C8" transform="translate(94,174)"/>
<path d="M0 0 C0.99 0.33 1.98 0.66 3 1 C2.625 3.4375 2.625 3.4375 2 6 C1.01 6.495 1.01 6.495 0 7 C-0.99 6.34 -1.98 5.68 -3 5 C-2.01 4.67 -1.02 4.34 0 4 C0 2.68 0 1.36 0 0 Z " fill="#9CD1CA" transform="translate(99,70)"/>
</svg>
